<svg width="75" height="67" viewBox="0 0 75 67" fill="none" xmlns="http://www.w3.org/2000/svg">
<path d="M19.4881 63.7665L66.7024 36.5073C69.0357 35.1601 69.0357 31.7922 66.7024 30.4451L19.4881 3.18592C17.1548 1.83877 14.2381 3.52272 14.2381 6.21701L14.2381 60.7354C14.2381 63.4297 17.1548 65.1136 19.4881 63.7665Z" fill="#6C02AD" stroke="#6C02AD" stroke-width="5"/>
<path d="M22.436 49.616C20.0013 49.616 17.7427 49.2347 15.66 48.472C13.6067 47.68 11.8173 46.5653 10.292 45.128C8.796 43.6907 7.62267 42.004 6.772 40.068C5.92133 38.1027 5.496 35.9467 5.496 33.6C5.496 31.2533 5.92133 29.112 6.772 27.176C7.62267 25.2107 8.796 23.5093 10.292 22.072C11.8173 20.6347 13.6067 19.5347 15.66 18.772C17.7427 17.98 20.0013 17.584 22.436 17.584C25.2813 17.584 27.8187 18.0827 30.048 19.08C32.3067 20.0773 34.184 21.5147 35.68 23.392L30.136 28.408C29.1387 27.2347 28.0387 26.34 26.836 25.724C25.6627 25.108 24.3427 24.8 22.876 24.8C21.6147 24.8 20.456 25.0053 19.4 25.416C18.344 25.8267 17.4347 26.428 16.672 27.22C15.9387 27.9827 15.352 28.9067 14.912 29.992C14.5013 31.0773 14.296 32.28 14.296 33.6C14.296 34.92 14.5013 36.1227 14.912 37.208C15.352 38.2933 15.9387 39.232 16.672 40.024C17.4347 40.7867 18.344 41.3733 19.4 41.784C20.456 42.1947 21.6147 42.4 22.876 42.4C24.3427 42.4 25.6627 42.092 26.836 41.476C28.0387 40.86 29.1387 39.9653 30.136 38.792L35.68 43.808C34.184 45.656 32.3067 47.0933 30.048 48.12C27.8187 49.1173 25.2813 49.616 22.436 49.616ZM37.3644 49V18.2H44.5364L61.5204 38.704H58.1324V18.2H66.6684V49H59.4964L42.5124 28.496H45.9004V49H37.3644Z" fill="white"/>
</svg>
