<svg width="64" height="61" viewBox="0 0 64 61" fill="none" xmlns="http://www.w3.org/2000/svg">
<g clip-path="url(#clip0_27_12)">
<rect width="64" height="61" rx="25" fill="#6C02AD"/>
<path d="M15.447 26.182C14.7277 26.182 14.0603 26.0693 13.445 25.844C12.8383 25.61 12.3097 25.2807 11.859 24.856C11.417 24.4313 11.0703 23.933 10.819 23.361C10.5677 22.7803 10.442 22.1433 10.442 21.45C10.442 20.7567 10.5677 20.124 10.819 19.552C11.0703 18.9713 11.417 18.4687 11.859 18.044C12.3097 17.6193 12.8383 17.2943 13.445 17.069C14.0603 16.835 14.7277 16.718 15.447 16.718C16.2877 16.718 17.0373 16.8653 17.696 17.16C18.3633 17.4547 18.918 17.8793 19.36 18.434L17.722 19.916C17.4273 19.5693 17.1023 19.305 16.747 19.123C16.4003 18.941 16.0103 18.85 15.577 18.85C15.2043 18.85 14.862 18.9107 14.55 19.032C14.238 19.1533 13.9693 19.331 13.744 19.565C13.5273 19.7903 13.354 20.0633 13.224 20.384C13.1027 20.7047 13.042 21.06 13.042 21.45C13.042 21.84 13.1027 22.1953 13.224 22.516C13.354 22.8367 13.5273 23.114 13.744 23.348C13.9693 23.5733 14.238 23.7467 14.55 23.868C14.862 23.9893 15.2043 24.05 15.577 24.05C16.0103 24.05 16.4003 23.959 16.747 23.777C17.1023 23.595 17.4273 23.3307 17.722 22.984L19.36 24.466C18.918 25.012 18.3633 25.4367 17.696 25.74C17.0373 26.0347 16.2877 26.182 15.447 26.182ZM19.7407 26V18.954H22.2107V26H19.7407ZM20.9757 18.174C20.525 18.174 20.161 18.0483 19.8837 17.797C19.6063 17.5457 19.4677 17.2337 19.4677 16.861C19.4677 16.4883 19.6063 16.1763 19.8837 15.925C20.161 15.6737 20.525 15.548 20.9757 15.548C21.4263 15.548 21.7903 15.6693 22.0677 15.912C22.345 16.146 22.4837 16.4493 22.4837 16.822C22.4837 17.212 22.345 17.537 22.0677 17.797C21.799 18.0483 21.435 18.174 20.9757 18.174ZM27.7549 18.837C28.3009 18.837 28.7949 18.9497 29.2369 19.175C29.6789 19.3917 30.0255 19.7297 30.2769 20.189C30.5369 20.6483 30.6669 21.242 30.6669 21.97V26H28.1969V22.373C28.1969 21.8703 28.0929 21.5063 27.8849 21.281C27.6855 21.047 27.4039 20.93 27.0399 20.93C26.7799 20.93 26.5415 20.9907 26.3249 21.112C26.1082 21.2247 25.9392 21.4023 25.8179 21.645C25.6965 21.8877 25.6359 22.204 25.6359 22.594V26H23.1659V18.954H25.5189V20.956L25.0639 20.371C25.3325 19.8597 25.7009 19.4783 26.1689 19.227C26.6369 18.967 27.1655 18.837 27.7549 18.837ZM35.3485 26.117C34.5165 26.117 33.7885 25.961 33.1645 25.649C32.5491 25.3283 32.0681 24.895 31.7215 24.349C31.3835 23.7943 31.2145 23.166 31.2145 22.464C31.2145 21.762 31.3791 21.138 31.7085 20.592C32.0465 20.0373 32.5101 19.6083 33.0995 19.305C33.6888 18.993 34.3518 18.837 35.0885 18.837C35.7818 18.837 36.4145 18.98 36.9865 19.266C37.5585 19.5433 38.0135 19.955 38.3515 20.501C38.6895 21.047 38.8585 21.71 38.8585 22.49C38.8585 22.5767 38.8541 22.6763 38.8455 22.789C38.8368 22.9017 38.8281 23.0057 38.8195 23.101H33.2425V21.801H37.5065L36.5705 22.165C36.5791 21.8443 36.5185 21.567 36.3885 21.333C36.2671 21.099 36.0938 20.917 35.8685 20.787C35.6518 20.657 35.3961 20.592 35.1015 20.592C34.8068 20.592 34.5468 20.657 34.3215 20.787C34.1048 20.917 33.9358 21.1033 33.8145 21.346C33.6931 21.58 33.6325 21.8573 33.6325 22.178V22.555C33.6325 22.9017 33.7018 23.2007 33.8405 23.452C33.9878 23.7033 34.1958 23.8983 34.4645 24.037C34.7331 24.167 35.0538 24.232 35.4265 24.232C35.7731 24.232 36.0678 24.1843 36.3105 24.089C36.5618 23.985 36.8088 23.829 37.0515 23.621L38.3515 24.973C38.0135 25.3457 37.5975 25.6317 37.1035 25.831C36.6095 26.0217 36.0245 26.117 35.3485 26.117ZM14.108 42.182C13.3627 42.182 12.6433 42.091 11.95 41.909C11.2653 41.7183 10.7063 41.4757 10.273 41.181L11.118 39.283C11.5253 39.543 11.9933 39.7597 12.522 39.933C13.0593 40.0977 13.5923 40.18 14.121 40.18C14.4763 40.18 14.7623 40.1497 14.979 40.089C15.1957 40.0197 15.3517 39.933 15.447 39.829C15.551 39.7163 15.603 39.5863 15.603 39.439C15.603 39.231 15.5077 39.0663 15.317 38.945C15.1263 38.8237 14.8793 38.724 14.576 38.646C14.2727 38.568 13.9347 38.49 13.562 38.412C13.198 38.334 12.8297 38.2343 12.457 38.113C12.093 37.9917 11.7593 37.8357 11.456 37.645C11.1527 37.4457 10.9057 37.19 10.715 36.878C10.5243 36.5573 10.429 36.1543 10.429 35.669C10.429 35.123 10.5763 34.629 10.871 34.187C11.1743 33.745 11.625 33.3897 12.223 33.121C12.821 32.8523 13.5663 32.718 14.459 32.718C15.057 32.718 15.642 32.7873 16.214 32.926C16.7947 33.056 17.3103 33.251 17.761 33.511L16.968 35.422C16.5347 35.188 16.1057 35.0147 15.681 34.902C15.2563 34.7807 14.8447 34.72 14.446 34.72C14.0907 34.72 13.8047 34.759 13.588 34.837C13.3713 34.9063 13.2153 35.0017 13.12 35.123C13.0247 35.2443 12.977 35.383 12.977 35.539C12.977 35.7383 13.068 35.8987 13.25 36.02C13.4407 36.1327 13.6877 36.228 13.991 36.306C14.303 36.3753 14.641 36.449 15.005 36.527C15.3777 36.605 15.746 36.7047 16.11 36.826C16.4827 36.9387 16.8207 37.0947 17.124 37.294C17.4273 37.4847 17.67 37.7403 17.852 38.061C18.0427 38.373 18.138 38.7673 18.138 39.244C18.138 39.7727 17.9863 40.2623 17.683 40.713C17.3883 41.155 16.942 41.5103 16.344 41.779C15.7547 42.0477 15.0093 42.182 14.108 42.182ZM21.706 42.117C20.8047 42.117 20.1027 41.896 19.6 41.454C19.0973 41.0033 18.846 40.3273 18.846 39.426V33.381H21.316V39.4C21.316 39.6513 21.3853 39.8507 21.524 39.998C21.6627 40.1367 21.8403 40.206 22.057 40.206C22.3517 40.206 22.603 40.1323 22.811 39.985L23.422 41.714C23.214 41.8527 22.9583 41.9523 22.655 42.013C22.3517 42.0823 22.0353 42.117 21.706 42.117ZM17.819 37.06V35.214H22.928V37.06H17.819ZM23.7244 42V34.954H26.0774V37.008L25.7264 36.423C25.9344 35.8943 26.2724 35.5 26.7404 35.24C27.2084 34.9713 27.7761 34.837 28.4434 34.837V37.06C28.3308 37.0427 28.2311 37.034 28.1444 37.034C28.0664 37.0253 27.9798 37.021 27.8844 37.021C27.3818 37.021 26.9744 37.1597 26.6624 37.437C26.3504 37.7057 26.1944 38.1477 26.1944 38.763V42H23.7244ZM32.4412 42.117C31.6092 42.117 30.8812 41.961 30.2572 41.649C29.6419 41.3283 29.1609 40.895 28.8142 40.349C28.4762 39.7943 28.3072 39.166 28.3072 38.464C28.3072 37.762 28.4719 37.138 28.8012 36.592C29.1392 36.0373 29.6029 35.6083 30.1922 35.305C30.7816 34.993 31.4446 34.837 32.1812 34.837C32.8746 34.837 33.5072 34.98 34.0792 35.266C34.6512 35.5433 35.1062 35.955 35.4442 36.501C35.7822 37.047 35.9512 37.71 35.9512 38.49C35.9512 38.5767 35.9469 38.6763 35.9382 38.789C35.9296 38.9017 35.9209 39.0057 35.9122 39.101H30.3352V37.801H34.5992L33.6632 38.165C33.6719 37.8443 33.6112 37.567 33.4812 37.333C33.3599 37.099 33.1866 36.917 32.9612 36.787C32.7446 36.657 32.4889 36.592 32.1942 36.592C31.8996 36.592 31.6396 36.657 31.4142 36.787C31.1976 36.917 31.0286 37.1033 30.9072 37.346C30.7859 37.58 30.7252 37.8573 30.7252 38.178V38.555C30.7252 38.9017 30.7946 39.2007 30.9332 39.452C31.0806 39.7033 31.2886 39.8983 31.5572 40.037C31.8259 40.167 32.1466 40.232 32.5192 40.232C32.8659 40.232 33.1606 40.1843 33.4032 40.089C33.6546 39.985 33.9016 39.829 34.1442 39.621L35.4442 40.973C35.1062 41.3457 34.6902 41.6317 34.1962 41.831C33.7022 42.0217 33.1172 42.117 32.4412 42.117ZM40.5526 42V40.687L40.3836 40.362V37.944C40.3836 37.554 40.2623 37.255 40.0196 37.047C39.7856 36.8303 39.4086 36.722 38.8886 36.722C38.5506 36.722 38.2083 36.7783 37.8616 36.891C37.515 36.995 37.2203 37.1423 36.9776 37.333L36.1456 35.656C36.5443 35.396 37.021 35.1967 37.5756 35.058C38.139 34.9107 38.698 34.837 39.2526 34.837C40.3966 34.837 41.2806 35.1013 41.9046 35.63C42.5373 36.15 42.8536 36.969 42.8536 38.087V42H40.5526ZM38.4726 42.117C37.9093 42.117 37.4326 42.0217 37.0426 41.831C36.6526 41.6403 36.3536 41.3803 36.1456 41.051C35.9463 40.7217 35.8466 40.3533 35.8466 39.946C35.8466 39.5127 35.955 39.14 36.1716 38.828C36.397 38.5073 36.7393 38.2647 37.1986 38.1C37.658 37.9267 38.2516 37.84 38.9796 37.84H40.6436V39.127H39.3176C38.919 39.127 38.6373 39.192 38.4726 39.322C38.3166 39.452 38.2386 39.6253 38.2386 39.842C38.2386 40.0587 38.321 40.232 38.4856 40.362C38.6503 40.492 38.8756 40.557 39.1616 40.557C39.4303 40.557 39.673 40.492 39.8896 40.362C40.115 40.2233 40.2796 40.0153 40.3836 39.738L40.7216 40.648C40.5916 41.1333 40.336 41.5017 39.9546 41.753C39.582 41.9957 39.088 42.117 38.4726 42.117ZM52.9407 34.837C53.4867 34.837 53.9721 34.9497 54.3967 35.175C54.8301 35.3917 55.1681 35.7297 55.4107 36.189C55.6621 36.6483 55.7877 37.242 55.7877 37.97V42H53.3177V38.373C53.3177 37.8703 53.2224 37.5063 53.0317 37.281C52.8411 37.047 52.5811 36.93 52.2517 36.93C52.0177 36.93 51.8054 36.9863 51.6147 37.099C51.4241 37.2117 51.2767 37.385 51.1727 37.619C51.0687 37.8443 51.0167 38.139 51.0167 38.503V42H48.5467V38.373C48.5467 37.8703 48.4514 37.5063 48.2607 37.281C48.0787 37.047 47.8187 36.93 47.4807 36.93C47.2381 36.93 47.0214 36.9863 46.8307 37.099C46.6487 37.2117 46.5014 37.385 46.3887 37.619C46.2847 37.8443 46.2327 38.139 46.2327 38.503V42H43.7627V34.954H46.1157V36.917L45.6477 36.358C45.9077 35.8553 46.2631 35.4783 46.7137 35.227C47.1644 34.967 47.6671 34.837 48.2217 34.837C48.8544 34.837 49.4091 35.0017 49.8857 35.331C50.3711 35.6517 50.6961 36.1543 50.8607 36.839L50.0547 36.67C50.3061 36.098 50.6831 35.6517 51.1857 35.331C51.6971 35.0017 52.2821 34.837 52.9407 34.837Z" fill="white"/>
</g>
<defs>
<clipPath id="clip0_27_12">
<rect width="64" height="61" fill="white"/>
</clipPath>
</defs>
</svg>
